# xmcd CD database file
#
# Track frame offsets:
#	150
#	12902
#	24693
#	37438
#	52226
#	65436
#	79385
#	92725
#	107794
#	122187
#	136008
#	149528
#	163359
#	178511
#	190691
#	201662
#	213368
#	225342
#	239941
#	254712
#	269037
#
# Disc length: 3759 seconds
#
# Revision: 1
# Processed by: cddbd v1.5.1PL0 Copyright (c) Steve Scherf et al.
# Submitted via: CDex 1.51
#
DISCID=540ead15
DTITLE=100 Years Of Jazz - 4 - Swing - Kansas City
DYEAR=1999
DGENRE=Jazz
TTITLE0=Chick Webb And His Orchestra - Liza (All Clounds Roll Away)
TTITLE1=Chick Webb With Ella Fitzgerald - A-Tisket A-Tasket
TTITLE2=Benny Moton And His Orchestra - Rhuma Negro
TTITLE3=Jimmy Lunceford And His Orchestra - Rhythm Is Our Business
TTITLE4=Jean Goldkette And His Orchestra - Birmingham Bertha
TTITLE5=McKinney's Cotton Pickers - I'd Love It
TTITLE6=Fats Waller And His Rhythm - A Good Man Is Hard To Find
TTITLE7=Fats Waller And His Rhythm And Orchestra - Jitterbug Walz
TTITLE8=Benny Goodman And His Orchestra - All The Cats Join In
TTITLE9=Gene Krupa And His Orchestra - Let Me Off Uptown
TTITLE10=Luis Russell And His Burning Eight - Savoy Shout
TTITLE11=Count Basie And His Orchestra - Rock-A-Bye Basie
TTITLE12=Count Basie And His Orchestra - Harvard Blues
TTITLE13=Duke Ellington And His Famous Orchestra - Mood Indigo
TTITLE14=Stuff Smith And His Onyx Club Band - Twilight In Turkey
TTITLE15=Zutty Singleton And His Orchestra - King Porter Stomp (Jelly Roll Morton)
TTITLE16=Eddie Durham And His Band - Moten Swing
TTITLE17=Quintet Du Hot Club De France - Minor Swing
TTITLE18=Billie Holiday With Frankie Newton And His Orchestra - Fine And Mellow
TTITLE19=Woody Herman And His Orchestra - Woodshopper's Ball
TTITLE20=Mary Lou Williams And Her Kansas City Seven - Harmony Blues
EXTD=YEAR: 1999
EXTT0=
EXTT1=
EXTT2=
EXTT3=
EXTT4=
EXTT5=
EXTT6=
EXTT7=
EXTT8=
EXTT9=
EXTT10=
EXTT11=
EXTT12=
EXTT13=
EXTT14=
EXTT15=
EXTT16=
EXTT17=
EXTT18=
EXTT19=
EXTT20=
PLAYORDER=
